<svg width="190" height="61" viewBox="0 0 190 61" fill="none" xmlns="http://www.w3.org/2000/svg">
<path d="M27.5007 23.9966V30.4999L31.5653 34.5644" stroke="#201B10" stroke-width="2.43872" stroke-linecap="round" stroke-linejoin="round"/>
<path d="M18.0818 40.9792C23.4847 45.8533 31.6735 45.8926 37.0232 41.0827L37.6873 41.7468C31.9656 46.9291 23.1827 46.8776 17.4177 41.6423L18.0818 40.9792ZM38.6433 20.4167C43.8784 26.1814 43.9285 34.9645 38.7478 40.6862L38.0837 40.0222C42.8936 34.6722 42.8547 26.4826 37.9802 21.0798L38.6433 20.4167ZM13.3865 29.1677C13.2241 31.1104 13.4609 33.0687 14.0867 34.9206C14.7122 36.772 15.7115 38.4719 17.0183 39.9177L16.3552 40.5807C14.946 39.0316 13.8689 37.2067 13.197 35.2175C12.5254 33.2289 12.2748 31.1254 12.4558 29.0397L13.3865 29.1677ZM18.4343 21.7077L18.4294 22.6462L17.3455 22.6413L17.9636 22.0231L18.2791 21.7067L18.4343 21.7077ZM17.3142 19.2526C23.0354 14.071 31.8179 14.1221 37.5828 19.3561L36.9197 20.0192C31.5168 15.1459 23.3267 15.1062 17.9773 19.9157L17.3142 19.2526ZM15.4958 18.9216L14.5623 19.8552L14.5564 18.7741L15.4949 18.7682L15.4958 18.9216Z" stroke="#201B10" stroke-width="1.5"/>
<path d="M66.5791 36.1074L77.082 19.6719H79.9092V41H77.082V24.5498L66.5791 41H63.7666V19.6719H66.5791V36.1074ZM90.9834 39.0664C91.6279 39.0664 92.2236 38.9346 92.7705 38.6709C93.3174 38.4072 93.7666 38.0459 94.1182 37.5869C94.4697 37.1182 94.6699 36.5859 94.7188 35.9902H97.2969C97.248 36.9277 96.9307 37.8018 96.3447 38.6123C95.7686 39.4131 95.0117 40.0625 94.0742 40.5605C93.1367 41.0488 92.1064 41.293 90.9834 41.293C89.792 41.293 88.752 41.083 87.8633 40.6631C86.9844 40.2432 86.252 39.667 85.666 38.9346C85.0898 38.2021 84.6553 37.3623 84.3623 36.415C84.0791 35.458 83.9375 34.4473 83.9375 33.3828V32.7676C83.9375 31.7031 84.0791 30.6973 84.3623 29.75C84.6553 28.793 85.0898 27.9482 85.666 27.2158C86.252 26.4834 86.9844 25.9072 87.8633 25.4873C88.752 25.0674 89.792 24.8574 90.9834 24.8574C92.2236 24.8574 93.3076 25.1113 94.2354 25.6191C95.1631 26.1172 95.8906 26.8008 96.418 27.6699C96.9551 28.5293 97.248 29.5059 97.2969 30.5996H94.7188C94.6699 29.9453 94.4844 29.3545 94.1621 28.8271C93.8496 28.2998 93.4199 27.8799 92.873 27.5674C92.3359 27.2451 91.7061 27.084 90.9834 27.084C90.1533 27.084 89.4551 27.25 88.8887 27.582C88.332 27.9043 87.8877 28.3438 87.5557 28.9004C87.2334 29.4473 86.999 30.0576 86.8525 30.7314C86.7158 31.3955 86.6475 32.0742 86.6475 32.7676V33.3828C86.6475 34.0762 86.7158 34.7598 86.8525 35.4336C86.9893 36.1074 87.2188 36.7178 87.541 37.2646C87.873 37.8115 88.3174 38.251 88.874 38.583C89.4404 38.9053 90.1436 39.0664 90.9834 39.0664ZM106.804 25.1504V41H104.079V25.1504H106.804ZM112.121 25.1504V27.3477H98.8643V25.1504H112.121ZM113.454 33.251V32.9141C113.454 31.7715 113.62 30.7119 113.952 29.7354C114.284 28.749 114.763 27.8945 115.388 27.1719C116.013 26.4395 116.77 25.873 117.658 25.4727C118.547 25.0625 119.543 24.8574 120.646 24.8574C121.76 24.8574 122.761 25.0625 123.649 25.4727C124.548 25.873 125.31 26.4395 125.935 27.1719C126.569 27.8945 127.053 28.749 127.385 29.7354C127.717 30.7119 127.883 31.7715 127.883 32.9141V33.251C127.883 34.3936 127.717 35.4531 127.385 36.4297C127.053 37.4062 126.569 38.2607 125.935 38.9932C125.31 39.7158 124.553 40.2822 123.664 40.6924C122.785 41.0928 121.789 41.293 120.676 41.293C119.562 41.293 118.562 41.0928 117.673 40.6924C116.784 40.2822 116.022 39.7158 115.388 38.9932C114.763 38.2607 114.284 37.4062 113.952 36.4297C113.62 35.4531 113.454 34.3936 113.454 33.251ZM116.164 32.9141V33.251C116.164 34.042 116.257 34.7891 116.442 35.4922C116.628 36.1855 116.906 36.8008 117.277 37.3379C117.658 37.875 118.132 38.2998 118.698 38.6123C119.265 38.915 119.924 39.0664 120.676 39.0664C121.418 39.0664 122.067 38.915 122.624 38.6123C123.19 38.2998 123.659 37.875 124.03 37.3379C124.401 36.8008 124.68 36.1855 124.865 35.4922C125.061 34.7891 125.158 34.042 125.158 33.251V32.9141C125.158 32.1328 125.061 31.3955 124.865 30.7021C124.68 29.999 124.396 29.3789 124.016 28.8418C123.645 28.2949 123.176 27.8652 122.609 27.5527C122.053 27.2402 121.398 27.084 120.646 27.084C119.904 27.084 119.25 27.2402 118.684 27.5527C118.127 27.8652 117.658 28.2949 117.277 28.8418C116.906 29.3789 116.628 29.999 116.442 30.7021C116.257 31.3955 116.164 32.1328 116.164 32.9141ZM133.991 28.1973V47.0938H131.267V25.1504H133.757L133.991 28.1973ZM144.67 32.9434V33.251C144.67 34.4033 144.533 35.4727 144.26 36.459C143.986 37.4355 143.586 38.2852 143.059 39.0078C142.541 39.7305 141.901 40.292 141.14 40.6924C140.378 41.0928 139.504 41.293 138.518 41.293C137.512 41.293 136.623 41.127 135.852 40.7949C135.08 40.4629 134.426 39.9795 133.889 39.3447C133.352 38.71 132.922 37.9482 132.6 37.0596C132.287 36.1709 132.072 35.1699 131.955 34.0566V32.416C132.072 31.2441 132.292 30.1943 132.614 29.2666C132.937 28.3389 133.361 27.5479 133.889 26.8936C134.426 26.2295 135.075 25.7266 135.837 25.3848C136.599 25.0332 137.478 24.8574 138.474 24.8574C139.47 24.8574 140.354 25.0527 141.125 25.4434C141.896 25.8242 142.546 26.3711 143.073 27.084C143.601 27.7969 143.996 28.6514 144.26 29.6475C144.533 30.6338 144.67 31.7324 144.67 32.9434ZM141.945 33.251V32.9434C141.945 32.1523 141.862 31.4102 141.696 30.7168C141.53 30.0137 141.271 29.3984 140.92 28.8711C140.578 28.334 140.139 27.9141 139.602 27.6113C139.064 27.2988 138.425 27.1426 137.683 27.1426C136.999 27.1426 136.403 27.2598 135.896 27.4941C135.397 27.7285 134.973 28.0459 134.621 28.4463C134.27 28.8369 133.981 29.2861 133.757 29.7939C133.542 30.292 133.381 30.8096 133.273 31.3467V35.1406C133.469 35.8242 133.742 36.4688 134.094 37.0742C134.445 37.6699 134.914 38.1533 135.5 38.5244C136.086 38.8857 136.823 39.0664 137.712 39.0664C138.444 39.0664 139.074 38.915 139.602 38.6123C140.139 38.2998 140.578 37.875 140.92 37.3379C141.271 36.8008 141.53 36.1855 141.696 35.4922C141.862 34.7891 141.945 34.042 141.945 33.251ZM151.057 36.708L158.366 25.1504H161.091V41H158.366V29.4424L151.057 41H148.361V25.1504H151.057V36.708ZM168.649 33.4414H171.579L166.994 41H164.064L168.649 33.4414ZM170.92 25.1504H177.541V41H174.831V27.3477H170.92C170.148 27.3477 169.519 27.4795 169.03 27.7432C168.542 27.9971 168.186 28.3291 167.961 28.7393C167.736 29.1494 167.624 29.5742 167.624 30.0137C167.624 30.4434 167.727 30.8584 167.932 31.2588C168.137 31.6494 168.459 31.9717 168.898 32.2256C169.338 32.4795 169.904 32.6064 170.598 32.6064H175.563V34.833H170.598C169.689 34.833 168.884 34.7109 168.181 34.4668C167.478 34.2227 166.882 33.8857 166.394 33.4561C165.905 33.0166 165.534 32.5039 165.28 31.918C165.026 31.3223 164.899 30.6777 164.899 29.9844C164.899 29.291 165.031 28.6514 165.295 28.0654C165.568 27.4795 165.959 26.9668 166.467 26.5273C166.984 26.0879 167.614 25.751 168.356 25.5166C169.108 25.2725 169.963 25.1504 170.92 25.1504Z" fill="#201B10"/>
</svg>
