<svg width="271" height="61" viewBox="0 0 271 61" fill="none" xmlns="http://www.w3.org/2000/svg">
<path d="M27.5 17.6841V35.2221" stroke="#201B10" stroke-width="2.5" stroke-miterlimit="10" stroke-linecap="round"/>
<path d="M34.2446 23.8733L28.4623 18.0896C28.2065 17.8365 27.8612 17.6945 27.5013 17.6945C27.1414 17.6945 26.7961 17.8365 26.5403 18.0896L20.755 23.8733M14.0103 33.1979V39.9427C14.0097 40.3858 14.0965 40.8247 14.2658 41.2342C14.4352 41.6437 14.6836 42.0158 14.9969 42.3292C15.3103 42.6425 15.6824 42.8909 16.0919 43.0602C16.5014 43.2296 16.9403 43.3164 17.3834 43.3158H37.6178C38.0608 43.3162 38.4995 43.2292 38.9088 43.0598C39.3182 42.8904 39.6901 42.642 40.0033 42.3286C40.3164 42.0153 40.5648 41.6433 40.734 41.2339C40.9032 40.8245 40.99 40.3857 40.9894 39.9427V33.1979" stroke="#201B10" stroke-width="2.5" stroke-linecap="round" stroke-linejoin="round"/>
<path d="M76.4785 34.2178H79.291C79.1445 35.5654 78.7588 36.7715 78.1338 37.8359C77.5088 38.9004 76.625 39.7451 75.4824 40.3701C74.3398 40.9854 72.9141 41.293 71.2051 41.293C69.9551 41.293 68.8174 41.0586 67.792 40.5898C66.7764 40.1211 65.9023 39.457 65.1699 38.5977C64.4375 37.7285 63.8711 36.6885 63.4707 35.4775C63.0801 34.2568 62.8848 32.8994 62.8848 31.4053V29.2812C62.8848 27.7871 63.0801 26.4346 63.4707 25.2236C63.8711 24.0029 64.4424 22.958 65.1846 22.0889C65.9365 21.2197 66.8398 20.5508 67.8945 20.082C68.9492 19.6133 70.1357 19.3789 71.4541 19.3789C73.0654 19.3789 74.4277 19.6816 75.541 20.2871C76.6543 20.8926 77.5186 21.7324 78.1338 22.8066C78.7588 23.8711 79.1445 25.1064 79.291 26.5127H76.4785C76.3418 25.5166 76.0879 24.6621 75.7168 23.9492C75.3457 23.2266 74.8184 22.6699 74.1348 22.2793C73.4512 21.8887 72.5576 21.6934 71.4541 21.6934C70.5068 21.6934 69.6719 21.874 68.9492 22.2354C68.2363 22.5967 67.6357 23.1094 67.1475 23.7734C66.6689 24.4375 66.3076 25.2334 66.0635 26.1611C65.8193 27.0889 65.6973 28.1191 65.6973 29.252V31.4053C65.6973 32.4502 65.8047 33.4316 66.0195 34.3496C66.2441 35.2676 66.5811 36.0732 67.0303 36.7666C67.4795 37.46 68.0508 38.0068 68.7441 38.4072C69.4375 38.7979 70.2578 38.9932 71.2051 38.9932C72.4062 38.9932 73.3633 38.8027 74.0762 38.4219C74.7891 38.041 75.3262 37.4941 75.6875 36.7812C76.0586 36.0684 76.3223 35.2139 76.4785 34.2178ZM94.5107 35.6094C94.5107 35.1113 94.4326 34.6719 94.2764 34.291C94.1299 33.9004 93.8662 33.5488 93.4854 33.2363C93.1143 32.9238 92.5967 32.626 91.9326 32.3428C91.2783 32.0596 90.4482 31.7715 89.4424 31.4785C88.3877 31.166 87.4355 30.8193 86.5859 30.4385C85.7363 30.0479 85.0088 29.6035 84.4033 29.1055C83.7979 28.6074 83.334 28.0361 83.0117 27.3916C82.6895 26.7471 82.5283 26.0098 82.5283 25.1797C82.5283 24.3496 82.6992 23.583 83.041 22.8799C83.3828 22.1768 83.8711 21.5664 84.5059 21.0488C85.1504 20.5215 85.917 20.1113 86.8057 19.8184C87.6943 19.5254 88.6855 19.3789 89.7793 19.3789C91.3809 19.3789 92.7383 19.6865 93.8516 20.3018C94.9746 20.9072 95.8291 21.7031 96.415 22.6895C97.001 23.666 97.2939 24.7109 97.2939 25.8242H94.4814C94.4814 25.0234 94.3105 24.3154 93.9688 23.7002C93.627 23.0752 93.1094 22.5869 92.416 22.2354C91.7227 21.874 90.8438 21.6934 89.7793 21.6934C88.7734 21.6934 87.9434 21.8447 87.2891 22.1475C86.6348 22.4502 86.1465 22.8604 85.8242 23.3779C85.5117 23.8955 85.3555 24.4863 85.3555 25.1504C85.3555 25.5996 85.4482 26.0098 85.6338 26.3809C85.8291 26.7422 86.127 27.0791 86.5273 27.3916C86.9375 27.7041 87.4551 27.9922 88.0801 28.2559C88.7148 28.5195 89.4717 28.7734 90.3506 29.0176C91.5615 29.3594 92.6064 29.7402 93.4854 30.1602C94.3643 30.5801 95.0869 31.0537 95.6533 31.5811C96.2295 32.0986 96.6543 32.6895 96.9277 33.3535C97.2109 34.0078 97.3525 34.75 97.3525 35.5801C97.3525 36.4492 97.1768 37.2354 96.8252 37.9385C96.4736 38.6416 95.9707 39.2422 95.3164 39.7402C94.6621 40.2383 93.876 40.624 92.958 40.8975C92.0498 41.1611 91.0342 41.293 89.9111 41.293C88.9248 41.293 87.9531 41.1562 86.9961 40.8828C86.0488 40.6094 85.1846 40.1992 84.4033 39.6523C83.6318 39.1055 83.0117 38.4316 82.543 37.6309C82.084 36.8203 81.8545 35.8828 81.8545 34.8184H84.667C84.667 35.5508 84.8086 36.1807 85.0918 36.708C85.375 37.2256 85.7607 37.6553 86.249 37.9971C86.7471 38.3389 87.3086 38.5928 87.9336 38.7588C88.5684 38.915 89.2275 38.9932 89.9111 38.9932C90.8975 38.9932 91.7324 38.8564 92.416 38.583C93.0996 38.3096 93.6172 37.9189 93.9688 37.4111C94.3301 36.9033 94.5107 36.3027 94.5107 35.6094ZM107.841 37.7627L114.125 19.6719H117.187L109.291 41H107.108L107.841 37.7627ZM101.967 19.6719L108.192 37.7627L108.969 41H106.786L98.9053 19.6719H101.967ZM135.395 21.5615L128.334 41H125.448L133.578 19.6719H135.438L135.395 21.5615ZM141.312 41L134.237 21.5615L134.193 19.6719H136.054L144.213 41H141.312ZM140.946 33.1045V35.4189H128.964V33.1045H140.946ZM157.411 32.0205V34.2178H149.032V32.0205H157.411ZM149.604 25.1504V41H146.894V25.1504H149.604ZM159.608 25.1504V41H156.884V25.1504H159.608ZM173.319 38.29V30.1309C173.319 29.5059 173.192 28.9639 172.938 28.5049C172.694 28.0361 172.323 27.6748 171.825 27.4209C171.327 27.167 170.712 27.04 169.979 27.04C169.296 27.04 168.695 27.1572 168.178 27.3916C167.67 27.626 167.27 27.9336 166.977 28.3145C166.693 28.6953 166.552 29.1055 166.552 29.5449H163.842C163.842 28.9785 163.988 28.417 164.281 27.8604C164.574 27.3037 164.994 26.8008 165.541 26.3516C166.098 25.8926 166.762 25.5312 167.533 25.2676C168.314 24.9941 169.184 24.8574 170.141 24.8574C171.293 24.8574 172.309 25.0527 173.188 25.4434C174.076 25.834 174.77 26.4248 175.268 27.2158C175.775 27.9971 176.029 28.9785 176.029 30.1602V37.543C176.029 38.0703 176.073 38.6318 176.161 39.2275C176.259 39.8232 176.4 40.3359 176.586 40.7656V41H173.759C173.622 40.6875 173.515 40.2725 173.437 39.7549C173.358 39.2275 173.319 38.7393 173.319 38.29ZM173.788 31.3906L173.817 33.2949H171.078C170.307 33.2949 169.618 33.3584 169.013 33.4854C168.407 33.6025 167.899 33.7832 167.489 34.0273C167.079 34.2715 166.767 34.5791 166.552 34.9502C166.337 35.3115 166.229 35.7363 166.229 36.2246C166.229 36.7227 166.342 37.1768 166.566 37.5869C166.791 37.9971 167.128 38.3242 167.577 38.5684C168.036 38.8027 168.598 38.9199 169.262 38.9199C170.092 38.9199 170.824 38.7441 171.459 38.3926C172.094 38.041 172.597 37.6113 172.968 37.1035C173.349 36.5957 173.554 36.1025 173.583 35.624L174.74 36.9277C174.672 37.3379 174.486 37.792 174.184 38.29C173.881 38.7881 173.476 39.2666 172.968 39.7256C172.47 40.1748 171.874 40.5508 171.181 40.8535C170.497 41.1465 169.726 41.293 168.866 41.293C167.792 41.293 166.85 41.083 166.039 40.6631C165.238 40.2432 164.613 39.6816 164.164 38.9785C163.725 38.2656 163.505 37.4697 163.505 36.5908C163.505 35.7412 163.671 34.9941 164.003 34.3496C164.335 33.6953 164.813 33.1533 165.438 32.7236C166.063 32.2842 166.815 31.9521 167.694 31.7275C168.573 31.5029 169.555 31.3906 170.639 31.3906H173.788ZM190.883 25.1504V27.3916H183.222V25.1504H190.883ZM193.271 25.1504V41H190.561V25.1504H193.271ZM182.562 25.1504H185.287L184.877 32.7969C184.809 33.9785 184.696 35.0234 184.54 35.9316C184.394 36.8301 184.188 37.6016 183.925 38.2461C183.671 38.8906 183.349 39.418 182.958 39.8281C182.577 40.2285 182.118 40.5264 181.581 40.7217C181.044 40.9072 180.424 41 179.721 41H178.871V38.6123L179.457 38.5684C179.877 38.5391 180.233 38.4414 180.526 38.2754C180.829 38.1094 181.083 37.8652 181.288 37.543C181.493 37.2109 181.659 36.7861 181.786 36.2686C181.923 35.751 182.025 35.1357 182.094 34.4229C182.172 33.71 182.23 32.8799 182.27 31.9326L182.562 25.1504ZM200.565 36.708L207.875 25.1504H210.6V41H207.875V29.4424L200.565 41H197.87V25.1504H200.565V36.708ZM221.41 25.1504V41H218.686V25.1504H221.41ZM226.728 25.1504V27.3477H213.471V25.1504H226.728ZM232.323 36.708L239.633 25.1504H242.357V41H239.633V29.4424L232.323 41H229.628V25.1504H232.323V36.708ZM249.652 25.1504V41H246.942V25.1504H249.652ZM260.053 25.1504L252.538 34.2324H248.744L248.334 31.8594H251.439L256.757 25.1504H260.053ZM257.138 41L251.308 33.8223L253.051 31.8594L260.58 41H257.138Z" fill="#201B10"/>
</svg>
