<svg width="283" height="61" viewBox="0 0 283 61" fill="none" xmlns="http://www.w3.org/2000/svg">
<g clip-path="url(#clip0_12_561)">
<path d="M14.375 39.25C15.5353 39.25 16.6481 39.7109 17.4686 40.5314C18.2891 41.3519 18.75 42.4647 18.75 43.625C18.75 44.7853 18.2891 45.8981 17.4686 46.7186C16.6481 47.5391 15.5353 48 14.375 48C13.2147 48 12.1019 47.5391 11.2814 46.7186C10.4609 45.8981 10 44.7853 10 43.625C10 42.4647 10.4609 41.3519 11.2814 40.5314C12.1019 39.7109 13.2147 39.25 14.375 39.25ZM40.625 39.25C41.7853 39.25 42.8981 39.7109 43.7186 40.5314C44.5391 41.3519 45 42.4647 45 43.625C45 44.7853 44.5391 45.8981 43.7186 46.7186C42.8981 47.5391 41.7853 48 40.625 48C39.4647 48 38.3519 47.5391 37.5314 46.7186C36.7109 45.8981 36.25 44.7853 36.25 43.625C36.25 42.4647 36.7109 41.3519 37.5314 40.5314C38.3519 39.7109 39.4647 39.25 40.625 39.25ZM14.375 41.4375C13.7948 41.4375 13.2384 41.668 12.8282 42.0782C12.418 42.4884 12.1875 43.0448 12.1875 43.625C12.1875 44.2052 12.418 44.7616 12.8282 45.1718C13.2384 45.582 13.7948 45.8125 14.375 45.8125C14.9552 45.8125 15.5116 45.582 15.9218 45.1718C16.332 44.7616 16.5625 44.2052 16.5625 43.625C16.5625 43.0448 16.332 42.4884 15.9218 42.0782C15.5116 41.668 14.9552 41.4375 14.375 41.4375ZM40.625 41.4375C40.0448 41.4375 39.4884 41.668 39.0782 42.0782C38.668 42.4884 38.4375 43.0448 38.4375 43.625C38.4375 44.2052 38.668 44.7616 39.0782 45.1718C39.4884 45.582 40.0448 45.8125 40.625 45.8125C41.2052 45.8125 41.7616 45.582 42.1718 45.1718C42.582 44.7616 42.8125 44.2052 42.8125 43.625C42.8125 43.0448 42.582 42.4884 42.1718 42.0782C41.7616 41.668 41.2052 41.4375 40.625 41.4375ZM28.5938 22.8438V29.4062H35.1562V31.5938H28.5938V38.1562H26.4062V31.5938H19.8438V29.4062H26.4062V22.8438H28.5938ZM14.375 13C15.5353 13 16.6481 13.4609 17.4686 14.2814C18.2891 15.1019 18.75 16.2147 18.75 17.375C18.75 18.5353 18.2891 19.6481 17.4686 20.4686C16.6481 21.2891 15.5353 21.75 14.375 21.75C13.2147 21.75 12.1019 21.2891 11.2814 20.4686C10.4609 19.6481 10 18.5353 10 17.375C10 16.2147 10.4609 15.1019 11.2814 14.2814C12.1019 13.4609 13.2147 13 14.375 13ZM40.625 13C41.7853 13 42.8981 13.4609 43.7186 14.2814C44.5391 15.1019 45 16.2147 45 17.375C45 18.5353 44.5391 19.6481 43.7186 20.4686C42.8981 21.2891 41.7853 21.75 40.625 21.75C39.4647 21.75 38.3519 21.2891 37.5314 20.4686C36.7109 19.6481 36.25 18.5353 36.25 17.375C36.25 16.2147 36.7109 15.1019 37.5314 14.2814C38.3519 13.4609 39.4647 13 40.625 13ZM40.625 15.1875C40.0448 15.1875 39.4884 15.418 39.0782 15.8282C38.668 16.2384 38.4375 16.7948 38.4375 17.375C38.4375 17.9552 38.668 18.5116 39.0782 18.9218C39.4884 19.332 40.0448 19.5625 40.625 19.5625C41.2052 19.5625 41.7616 19.332 42.1718 18.9218C42.582 18.5116 42.8125 17.9552 42.8125 17.375C42.8125 16.7948 42.582 16.2384 42.1718 15.8282C41.7616 15.418 41.2052 15.1875 40.625 15.1875ZM14.375 15.1875C13.7948 15.1875 13.2384 15.418 12.8282 15.8282C12.418 16.2384 12.1875 16.7948 12.1875 17.375C12.1875 17.9552 12.418 18.5116 12.8282 18.9218C13.2384 19.332 13.7948 19.5625 14.375 19.5625C14.9552 19.5625 15.5116 19.332 15.9218 18.9218C16.332 18.5116 16.5625 17.9552 16.5625 17.375C16.5625 16.7948 16.332 16.2384 15.9218 15.8282C15.5116 15.418 14.9552 15.1875 14.375 15.1875Z" fill="#201B10"/>
<path d="M33.0541 44.7734C33.1656 45.5139 33.3822 46.2194 33.6906 46.8734C31.7121 47.6199 29.6147 48.0016 27.5 48C25.3202 48 23.2344 47.6019 21.3094 46.8734C21.6167 46.2194 21.8344 45.5139 21.9459 44.7734C23.6675 45.445 25.5411 45.8125 27.5 45.8125C29.4589 45.8125 31.3325 45.445 33.0541 44.7734ZM43.8734 24.3094C44.6199 26.2879 45.0016 28.3853 45 30.5C45 32.6798 44.6019 34.7656 43.8734 36.6906C43.2076 36.3787 42.5004 36.1643 41.7734 36.0541C42.445 34.3325 42.8125 32.4589 42.8125 30.5C42.8125 28.5411 42.445 26.6675 41.7734 24.9459C42.5004 24.8357 43.2076 24.6213 43.8734 24.3094ZM11.1266 24.3094C11.7806 24.6167 12.4861 24.8344 13.2266 24.9459C12.5387 26.7168 12.1863 28.6002 12.1875 30.5C12.1875 32.4589 12.555 34.3325 13.2266 36.0541C12.4996 36.1643 11.7924 36.3787 11.1266 36.6906C10.3801 34.7121 9.99841 32.6147 10 30.5C10 28.3202 10.3981 26.2344 11.1266 24.3094ZM27.5 13C29.6798 13 31.7656 13.3981 33.6906 14.1266C33.3787 14.7924 33.1643 15.4996 33.0541 16.2266C31.2832 15.5387 29.3998 15.1863 27.5 15.1875C25.5411 15.1875 23.6675 15.555 21.9459 16.2266C21.8357 15.4996 21.6213 14.7924 21.3094 14.1266C23.2879 13.3801 25.3853 12.9984 27.5 13Z" fill="#201B10"/>
</g>
<path d="M80.5088 34.2178H83.3213C83.1748 35.5654 82.7891 36.7715 82.1641 37.8359C81.5391 38.9004 80.6553 39.7451 79.5127 40.3701C78.3701 40.9854 76.9443 41.293 75.2354 41.293C73.9854 41.293 72.8477 41.0586 71.8223 40.5898C70.8066 40.1211 69.9326 39.457 69.2002 38.5977C68.4678 37.7285 67.9014 36.6885 67.501 35.4775C67.1104 34.2568 66.915 32.8994 66.915 31.4053V29.2812C66.915 27.7871 67.1104 26.4346 67.501 25.2236C67.9014 24.0029 68.4727 22.958 69.2148 22.0889C69.9668 21.2197 70.8701 20.5508 71.9248 20.082C72.9795 19.6133 74.166 19.3789 75.4844 19.3789C77.0957 19.3789 78.458 19.6816 79.5713 20.2871C80.6846 20.8926 81.5488 21.7324 82.1641 22.8066C82.7891 23.8711 83.1748 25.1064 83.3213 26.5127H80.5088C80.3721 25.5166 80.1182 24.6621 79.7471 23.9492C79.376 23.2266 78.8486 22.6699 78.165 22.2793C77.4814 21.8887 76.5879 21.6934 75.4844 21.6934C74.5371 21.6934 73.7021 21.874 72.9795 22.2354C72.2666 22.5967 71.666 23.1094 71.1777 23.7734C70.6992 24.4375 70.3379 25.2334 70.0938 26.1611C69.8496 27.0889 69.7275 28.1191 69.7275 29.252V31.4053C69.7275 32.4502 69.835 33.4316 70.0498 34.3496C70.2744 35.2676 70.6113 36.0732 71.0605 36.7666C71.5098 37.46 72.0811 38.0068 72.7744 38.4072C73.4678 38.7979 74.2881 38.9932 75.2354 38.9932C76.4365 38.9932 77.3936 38.8027 78.1064 38.4219C78.8193 38.041 79.3564 37.4941 79.7178 36.7812C80.0889 36.0684 80.3525 35.2139 80.5088 34.2178ZM98.541 35.6094C98.541 35.1113 98.4629 34.6719 98.3066 34.291C98.1602 33.9004 97.8965 33.5488 97.5156 33.2363C97.1445 32.9238 96.627 32.626 95.9629 32.3428C95.3086 32.0596 94.4785 31.7715 93.4727 31.4785C92.418 31.166 91.4658 30.8193 90.6162 30.4385C89.7666 30.0479 89.0391 29.6035 88.4336 29.1055C87.8281 28.6074 87.3643 28.0361 87.042 27.3916C86.7197 26.7471 86.5586 26.0098 86.5586 25.1797C86.5586 24.3496 86.7295 23.583 87.0713 22.8799C87.4131 22.1768 87.9014 21.5664 88.5361 21.0488C89.1807 20.5215 89.9473 20.1113 90.8359 19.8184C91.7246 19.5254 92.7158 19.3789 93.8096 19.3789C95.4111 19.3789 96.7686 19.6865 97.8818 20.3018C99.0049 20.9072 99.8594 21.7031 100.445 22.6895C101.031 23.666 101.324 24.7109 101.324 25.8242H98.5117C98.5117 25.0234 98.3408 24.3154 97.999 23.7002C97.6572 23.0752 97.1396 22.5869 96.4463 22.2354C95.7529 21.874 94.874 21.6934 93.8096 21.6934C92.8037 21.6934 91.9736 21.8447 91.3193 22.1475C90.665 22.4502 90.1768 22.8604 89.8545 23.3779C89.542 23.8955 89.3857 24.4863 89.3857 25.1504C89.3857 25.5996 89.4785 26.0098 89.6641 26.3809C89.8594 26.7422 90.1572 27.0791 90.5576 27.3916C90.9678 27.7041 91.4854 27.9922 92.1104 28.2559C92.7451 28.5195 93.502 28.7734 94.3809 29.0176C95.5918 29.3594 96.6367 29.7402 97.5156 30.1602C98.3945 30.5801 99.1172 31.0537 99.6836 31.5811C100.26 32.0986 100.685 32.6895 100.958 33.3535C101.241 34.0078 101.383 34.75 101.383 35.5801C101.383 36.4492 101.207 37.2354 100.855 37.9385C100.504 38.6416 100.001 39.2422 99.3467 39.7402C98.6924 40.2383 97.9062 40.624 96.9883 40.8975C96.0801 41.1611 95.0645 41.293 93.9414 41.293C92.9551 41.293 91.9834 41.1562 91.0264 40.8828C90.0791 40.6094 89.2148 40.1992 88.4336 39.6523C87.6621 39.1055 87.042 38.4316 86.5732 37.6309C86.1143 36.8203 85.8848 35.8828 85.8848 34.8184H88.6973C88.6973 35.5508 88.8389 36.1807 89.1221 36.708C89.4053 37.2256 89.791 37.6553 90.2793 37.9971C90.7773 38.3389 91.3389 38.5928 91.9639 38.7588C92.5986 38.915 93.2578 38.9932 93.9414 38.9932C94.9277 38.9932 95.7627 38.8564 96.4463 38.583C97.1299 38.3096 97.6475 37.9189 97.999 37.4111C98.3604 36.9033 98.541 36.3027 98.541 35.6094ZM111.871 37.7627L118.155 19.6719H121.217L113.321 41H111.139L111.871 37.7627ZM105.997 19.6719L112.223 37.7627L112.999 41H110.816L102.936 19.6719H105.997ZM144.757 19.6719V21.9863H134.474V41H131.661V19.6719H144.757ZM151.642 41.293C150.538 41.293 149.537 41.1074 148.639 40.7363C147.75 40.3555 146.983 39.8232 146.339 39.1396C145.704 38.4561 145.216 37.6455 144.874 36.708C144.532 35.7705 144.361 34.7451 144.361 33.6318V33.0166C144.361 31.7275 144.552 30.5801 144.933 29.5742C145.313 28.5586 145.831 27.6992 146.485 26.9961C147.14 26.293 147.882 25.7607 148.712 25.3994C149.542 25.0381 150.401 24.8574 151.29 24.8574C152.423 24.8574 153.399 25.0527 154.22 25.4434C155.05 25.834 155.729 26.3809 156.256 27.084C156.783 27.7773 157.174 28.5977 157.428 29.5449C157.682 30.4824 157.809 31.5078 157.809 32.6211V33.8369H145.973V31.625H155.099V31.4199C155.06 30.7168 154.913 30.0332 154.659 29.3691C154.415 28.7051 154.024 28.1582 153.487 27.7285C152.95 27.2988 152.218 27.084 151.29 27.084C150.675 27.084 150.108 27.2158 149.591 27.4795C149.073 27.7334 148.629 28.1143 148.258 28.6221C147.887 29.1299 147.599 29.75 147.394 30.4824C147.188 31.2148 147.086 32.0596 147.086 33.0166V33.6318C147.086 34.3838 147.188 35.0918 147.394 35.7559C147.608 36.4102 147.916 36.9863 148.316 37.4844C148.727 37.9824 149.22 38.373 149.796 38.6562C150.382 38.9395 151.046 39.0811 151.788 39.0811C152.745 39.0811 153.556 38.8857 154.22 38.4951C154.884 38.1045 155.465 37.582 155.963 36.9277L157.604 38.2314C157.262 38.749 156.827 39.2422 156.3 39.7109C155.772 40.1797 155.123 40.5605 154.352 40.8535C153.59 41.1465 152.687 41.293 151.642 41.293ZM171.725 32.0205V34.2178H163.346V32.0205H171.725ZM163.917 25.1504V41H161.207V25.1504H163.917ZM173.922 25.1504V41H171.197V25.1504H173.922ZM184.864 41.293C183.761 41.293 182.76 41.1074 181.861 40.7363C180.973 40.3555 180.206 39.8232 179.562 39.1396C178.927 38.4561 178.438 37.6455 178.097 36.708C177.755 35.7705 177.584 34.7451 177.584 33.6318V33.0166C177.584 31.7275 177.774 30.5801 178.155 29.5742C178.536 28.5586 179.054 27.6992 179.708 26.9961C180.362 26.293 181.104 25.7607 181.935 25.3994C182.765 25.0381 183.624 24.8574 184.513 24.8574C185.646 24.8574 186.622 25.0527 187.442 25.4434C188.272 25.834 188.951 26.3809 189.479 27.084C190.006 27.7773 190.396 28.5977 190.65 29.5449C190.904 30.4824 191.031 31.5078 191.031 32.6211V33.8369H179.195V31.625H188.321V31.4199C188.282 30.7168 188.136 30.0332 187.882 29.3691C187.638 28.7051 187.247 28.1582 186.71 27.7285C186.173 27.2988 185.44 27.084 184.513 27.084C183.897 27.084 183.331 27.2158 182.813 27.4795C182.296 27.7334 181.852 28.1143 181.48 28.6221C181.109 29.1299 180.821 29.75 180.616 30.4824C180.411 31.2148 180.309 32.0596 180.309 33.0166V33.6318C180.309 34.3838 180.411 35.0918 180.616 35.7559C180.831 36.4102 181.139 36.9863 181.539 37.4844C181.949 37.9824 182.442 38.373 183.019 38.6562C183.604 38.9395 184.269 39.0811 185.011 39.0811C185.968 39.0811 186.778 38.8857 187.442 38.4951C188.106 38.1045 188.688 37.582 189.186 36.9277L190.826 38.2314C190.484 38.749 190.05 39.2422 189.522 39.7109C188.995 40.1797 188.346 40.5605 187.574 40.8535C186.812 41.1465 185.909 41.293 184.864 41.293ZM196.905 28.1973V47.0938H194.181V25.1504H196.671L196.905 28.1973ZM207.584 32.9434V33.251C207.584 34.4033 207.447 35.4727 207.174 36.459C206.9 37.4355 206.5 38.2852 205.973 39.0078C205.455 39.7305 204.815 40.292 204.054 40.6924C203.292 41.0928 202.418 41.293 201.432 41.293C200.426 41.293 199.537 41.127 198.766 40.7949C197.994 40.4629 197.34 39.9795 196.803 39.3447C196.266 38.71 195.836 37.9482 195.514 37.0596C195.201 36.1709 194.986 35.1699 194.869 34.0566V32.416C194.986 31.2441 195.206 30.1943 195.528 29.2666C195.851 28.3389 196.275 27.5479 196.803 26.8936C197.34 26.2295 197.989 25.7266 198.751 25.3848C199.513 25.0332 200.392 24.8574 201.388 24.8574C202.384 24.8574 203.268 25.0527 204.039 25.4434C204.811 25.8242 205.46 26.3711 205.987 27.084C206.515 27.7969 206.91 28.6514 207.174 29.6475C207.447 30.6338 207.584 31.7324 207.584 32.9434ZM204.859 33.251V32.9434C204.859 32.1523 204.776 31.4102 204.61 30.7168C204.444 30.0137 204.186 29.3984 203.834 28.8711C203.492 28.334 203.053 27.9141 202.516 27.6113C201.979 27.2988 201.339 27.1426 200.597 27.1426C199.913 27.1426 199.317 27.2598 198.81 27.4941C198.312 27.7285 197.887 28.0459 197.535 28.4463C197.184 28.8369 196.896 29.2861 196.671 29.7939C196.456 30.292 196.295 30.8096 196.188 31.3467V35.1406C196.383 35.8242 196.656 36.4688 197.008 37.0742C197.359 37.6699 197.828 38.1533 198.414 38.5244C199 38.8857 199.737 39.0664 200.626 39.0664C201.358 39.0664 201.988 38.915 202.516 38.6123C203.053 38.2998 203.492 37.875 203.834 37.3379C204.186 36.8008 204.444 36.1855 204.61 35.4922C204.776 34.7891 204.859 34.042 204.859 33.251ZM220.387 38.29V30.1309C220.387 29.5059 220.26 28.9639 220.006 28.5049C219.762 28.0361 219.391 27.6748 218.893 27.4209C218.395 27.167 217.779 27.04 217.047 27.04C216.363 27.04 215.763 27.1572 215.245 27.3916C214.737 27.626 214.337 27.9336 214.044 28.3145C213.761 28.6953 213.619 29.1055 213.619 29.5449H210.909C210.909 28.9785 211.056 28.417 211.349 27.8604C211.642 27.3037 212.062 26.8008 212.608 26.3516C213.165 25.8926 213.829 25.5312 214.601 25.2676C215.382 24.9941 216.251 24.8574 217.208 24.8574C218.36 24.8574 219.376 25.0527 220.255 25.4434C221.144 25.834 221.837 26.4248 222.335 27.2158C222.843 27.9971 223.097 28.9785 223.097 30.1602V37.543C223.097 38.0703 223.141 38.6318 223.229 39.2275C223.326 39.8232 223.468 40.3359 223.653 40.7656V41H220.826C220.689 40.6875 220.582 40.2725 220.504 39.7549C220.426 39.2275 220.387 38.7393 220.387 38.29ZM220.855 31.3906L220.885 33.2949H218.146C217.374 33.2949 216.686 33.3584 216.08 33.4854C215.475 33.6025 214.967 33.7832 214.557 34.0273C214.146 34.2715 213.834 34.5791 213.619 34.9502C213.404 35.3115 213.297 35.7363 213.297 36.2246C213.297 36.7227 213.409 37.1768 213.634 37.5869C213.858 37.9971 214.195 38.3242 214.645 38.5684C215.104 38.8027 215.665 38.9199 216.329 38.9199C217.159 38.9199 217.892 38.7441 218.526 38.3926C219.161 38.041 219.664 37.6113 220.035 37.1035C220.416 36.5957 220.621 36.1025 220.65 35.624L221.808 36.9277C221.739 37.3379 221.554 37.792 221.251 38.29C220.948 38.7881 220.543 39.2666 220.035 39.7256C219.537 40.1748 218.941 40.5508 218.248 40.8535C217.564 41.1465 216.793 41.293 215.934 41.293C214.859 41.293 213.917 41.083 213.106 40.6631C212.306 40.2432 211.681 39.6816 211.231 38.9785C210.792 38.2656 210.572 37.4697 210.572 36.5908C210.572 35.7412 210.738 34.9941 211.07 34.3496C211.402 33.6953 211.881 33.1533 212.506 32.7236C213.131 32.2842 213.883 31.9521 214.762 31.7275C215.641 31.5029 216.622 31.3906 217.706 31.3906H220.855ZM233.585 25.1504V41H230.86V25.1504H233.585ZM238.902 25.1504V27.3477H225.646V25.1504H238.902ZM240.235 33.251V32.9141C240.235 31.7715 240.401 30.7119 240.733 29.7354C241.065 28.749 241.544 27.8945 242.169 27.1719C242.794 26.4395 243.551 25.873 244.439 25.4727C245.328 25.0625 246.324 24.8574 247.428 24.8574C248.541 24.8574 249.542 25.0625 250.431 25.4727C251.329 25.873 252.091 26.4395 252.716 27.1719C253.351 27.8945 253.834 28.749 254.166 29.7354C254.498 30.7119 254.664 31.7715 254.664 32.9141V33.251C254.664 34.3936 254.498 35.4531 254.166 36.4297C253.834 37.4062 253.351 38.2607 252.716 38.9932C252.091 39.7158 251.334 40.2822 250.445 40.6924C249.566 41.0928 248.57 41.293 247.457 41.293C246.344 41.293 245.343 41.0928 244.454 40.6924C243.565 40.2822 242.804 39.7158 242.169 38.9932C241.544 38.2607 241.065 37.4062 240.733 36.4297C240.401 35.4531 240.235 34.3936 240.235 33.251ZM242.945 32.9141V33.251C242.945 34.042 243.038 34.7891 243.224 35.4922C243.409 36.1855 243.688 36.8008 244.059 37.3379C244.439 37.875 244.913 38.2998 245.479 38.6123C246.046 38.915 246.705 39.0664 247.457 39.0664C248.199 39.0664 248.849 38.915 249.405 38.6123C249.972 38.2998 250.44 37.875 250.812 37.3379C251.183 36.8008 251.461 36.1855 251.646 35.4922C251.842 34.7891 251.939 34.042 251.939 33.251V32.9141C251.939 32.1328 251.842 31.3955 251.646 30.7021C251.461 29.999 251.178 29.3789 250.797 28.8418C250.426 28.2949 249.957 27.8652 249.391 27.5527C248.834 27.2402 248.18 27.084 247.428 27.084C246.686 27.084 246.031 27.2402 245.465 27.5527C244.908 27.8652 244.439 28.2949 244.059 28.8418C243.688 29.3789 243.409 29.999 243.224 30.7021C243.038 31.3955 242.945 32.1328 242.945 32.9141ZM260.772 28.1973V47.0938H258.048V25.1504H260.538L260.772 28.1973ZM271.451 32.9434V33.251C271.451 34.4033 271.314 35.4727 271.041 36.459C270.768 37.4355 270.367 38.2852 269.84 39.0078C269.322 39.7305 268.683 40.292 267.921 40.6924C267.159 41.0928 266.285 41.293 265.299 41.293C264.293 41.293 263.404 41.127 262.633 40.7949C261.861 40.4629 261.207 39.9795 260.67 39.3447C260.133 38.71 259.703 37.9482 259.381 37.0596C259.068 36.1709 258.854 35.1699 258.736 34.0566V32.416C258.854 31.2441 259.073 30.1943 259.396 29.2666C259.718 28.3389 260.143 27.5479 260.67 26.8936C261.207 26.2295 261.856 25.7266 262.618 25.3848C263.38 25.0332 264.259 24.8574 265.255 24.8574C266.251 24.8574 267.135 25.0527 267.906 25.4434C268.678 25.8242 269.327 26.3711 269.854 27.084C270.382 27.7969 270.777 28.6514 271.041 29.6475C271.314 30.6338 271.451 31.7324 271.451 32.9434ZM268.727 33.251V32.9434C268.727 32.1523 268.644 31.4102 268.478 30.7168C268.312 30.0137 268.053 29.3984 267.701 28.8711C267.359 28.334 266.92 27.9141 266.383 27.6113C265.846 27.2988 265.206 27.1426 264.464 27.1426C263.78 27.1426 263.185 27.2598 262.677 27.4941C262.179 27.7285 261.754 28.0459 261.402 28.4463C261.051 28.8369 260.763 29.2861 260.538 29.7939C260.323 30.292 260.162 30.8096 260.055 31.3467V35.1406C260.25 35.8242 260.523 36.4688 260.875 37.0742C261.227 37.6699 261.695 38.1533 262.281 38.5244C262.867 38.8857 263.604 39.0664 264.493 39.0664C265.226 39.0664 265.855 38.915 266.383 38.6123C266.92 38.2998 267.359 37.875 267.701 37.3379C268.053 36.8008 268.312 36.1855 268.478 35.4922C268.644 34.7891 268.727 34.042 268.727 33.251Z" fill="#201B10"/>
<defs>
<clipPath id="clip0_12_561">
<rect width="35" height="35" fill="white" transform="translate(10 13)"/>
</clipPath>
</defs>
</svg>
